<?xml version="1.0" encoding="utf-8"?>
<!-- Generator: Adobe Illustrator 26.0.1, SVG Export Plug-In . SVG Version: 6.00 Build 0)  -->
<svg version="1.1" id="cart" xmlns="http://www.w3.org/2000/svg" xmlns:xlink="http://www.w3.org/1999/xlink" x="0px" y="0px"
	 viewBox="0 0 64 64" style="enable-background:new 0 0 64 64;" xml:space="preserve">
<path d="M48.9,42.6c-0.1,0-0.3,0.1-0.4,0.1c0,0-0.1,0-0.1,0.1h-28l1.7-4.1l32.3-6.8c0.6-0.1,1.1-0.6,1.1-1.3V16.8
	c0-0.8-0.6-1.4-1.4-1.4H20.1L19.6,11c-0.1-0.7-0.7-1.2-1.4-1.2H8.6v2.8H17l2.6,24.6L17.3,43c-0.7-0.1-1.5,0-2.2,0.3
	c-1.6,0.5-2.9,1.8-3.4,3.4c-1.5,4.3,2.7,8.5,7,7c1.6-0.5,2.8-1.8,3.4-3.4c0.6-1.7,0.3-3.3-0.5-4.6h23.7c-0.1,0.1-0.1,0.3-0.2,0.4
	c-1.5,4.3,2.7,8.5,7,7c1.6-0.5,2.9-1.8,3.4-3.4C56.9,45.5,53.1,41.5,48.9,42.6z M52.6,18.2v11.3l-30.3,6.3l-1.9-17.6H52.6z
	 M17.1,51.3c-1.5,0.1-2.9-1.1-3-2.6c-0.1-1.7,1.2-3,2.8-3c1.5,0,2.8,1.2,2.8,2.8C19.7,50,18.6,51.2,17.1,51.3z M50.5,50.7
	c-1.5,0.1-2.9-1.1-3-2.6c-0.1-1.7,1.2-3,2.8-3c1.5,0,2.8,1.2,2.8,2.8C53.1,49.5,52,50.7,50.5,50.7z"/>
</svg>
